<svg width="24" height="24" viewBox="0 0 24 24" fill="none" xmlns="http://www.w3.org/2000/svg">
<path d="M8.29912 18.0505L3.12457 16.6094L3.7873 21.8769" stroke="white" stroke-width="2" stroke-linecap="round" stroke-linejoin="round"/>
<path d="M22 12C22.0011 14.2391 21.2499 16.4136 19.867 18.1751C18.4841 19.9366 16.5496 21.1829 14.3735 21.7144C12.1974 22.2458 9.90582 22.0315 7.86609 21.1059C5.82636 20.1803 4.15663 18.597 3.12457 16.6097" stroke="white" stroke-width="2" stroke-linecap="round" stroke-linejoin="round"/>
<path d="M15.7009 5.94946L20.8755 7.39061L20.2127 2.12305" stroke="white" stroke-width="2" stroke-linecap="round" stroke-linejoin="round"/>
<path d="M2 12C1.99897 9.76094 2.7501 7.58636 4.13299 5.82489C5.51589 4.06342 7.45044 2.81706 9.62653 2.28563C11.8026 1.75419 14.0942 1.96845 16.1339 2.89407C18.1737 3.81969 19.8434 5.40304 20.8755 7.39031" stroke="white" stroke-width="2" stroke-linecap="round" stroke-linejoin="round"/>
</svg>
